<svg width="30" height="30" viewBox="0 0 30 30" fill="none" xmlns="http://www.w3.org/2000/svg">
<circle cx="15" cy="15" r="15" fill="#E0E0E0"/>
<path fill-rule="evenodd" clip-rule="evenodd" d="M5 9C5 10.1 5.9 11 7 11H23C24.1 11 25 10.1 25 9C25 7.9 24.1 7 23 7H7C5.9 7 5 7.9 5 9ZM23 23H7C5.9 23 5 22.1 5 21C5 19.9 5.9 19 7 19H23C24.1 19 25 19.9 25 21C25 22.1 24.1 23 23 23ZM9 20H7V22H9V20ZM7 10H9V8H7V10ZM7 17H23C24.1 17 25 16.1 25 15C25 13.9 24.1 13 23 13H7C5.9 13 5 13.9 5 15C5 16.1 5.9 17 7 17ZM9 14H7V16H9V14Z" fill="black" fill-opacity="0.54"/>
</svg>
