<svg width="30" height="30" viewBox="0 0 30 30" fill="none" xmlns="http://www.w3.org/2000/svg">
<path d="M30 15C30 23.2843 23.2843 30 15 30C6.71573 30 0 23.2843 0 15C0 6.71573 6.71573 0 15 0C23.2843 0 30 6.71573 30 15Z" fill="#E0E0E0"/>
<path fill-rule="evenodd" clip-rule="evenodd" d="M15 9H23C24.1 9 25 9.9 25 11V21C25 22.1 24.1 23 23 23H7C5.9 23 5 22.1 5 21L5.01 9C5.01 7.9 5.9 7 7 7H12.17C12.7 7 13.21 7.21 13.59 7.59L15 9ZM7 20C7 20.55 7.45 21 8 21H22C22.55 21 23 20.55 23 20V12C23 11.45 22.55 11 22 11H8C7.45 11 7 11.45 7 12V20Z" fill="black" fill-opacity="0.54"/>
</svg>
