<svg width="30" height="30" viewBox="0 0 30 30" fill="none" xmlns="http://www.w3.org/2000/svg">
<g id="search_24px">
<g id="Group 5">
<path id="Ellipse 2" d="M30 15C30 23.2843 23.2843 30 15 30C6.71573 30 0 23.2843 0 15C0 6.71573 6.71573 0 15 0C23.2843 0 30 6.71573 30 15Z" fill="#E0E0E0"/>
<path id="icon/action/search_24px" fill-rule="evenodd" clip-rule="evenodd" d="M17.965 17.255H18.755L23.745 22.255L22.255 23.745L17.255 18.755V17.965L16.985 17.685C15.845 18.665 14.365 19.255 12.755 19.255C9.165 19.255 6.255 16.345 6.255 12.755C6.255 9.165 9.165 6.255 12.755 6.255C16.345 6.255 19.255 9.165 19.255 12.755C19.255 14.365 18.665 15.845 17.685 16.985L17.965 17.255ZM8.255 12.755C8.255 15.245 10.265 17.255 12.755 17.255C15.245 17.255 17.255 15.245 17.255 12.755C17.255 10.265 15.245 8.255 12.755 8.255C10.265 8.255 8.255 10.265 8.255 12.755Z" fill="black" fill-opacity="0.54"/>
</g>
</g>
</svg>
